<svg xmlns="http://www.w3.org/2000/svg" xmlns:ns1="http://sodipodi.sourceforge.net/DTD/sodipodi-0.dtd" width="2048" height="2048" viewBox="0 0 2048 2048" version="1.1"><circle cx="1024" cy="1024" r="1024" fill="#ffffff" /><defs><clipPath id="clipCircle"><circle cx="1024" cy="1024" r="1024" /></clipPath></defs><g clip-path="url(#clipCircle)" transform="translate(81.920000 313.300000) scale(0.92)"><path transform="translate(1184,116)" d="m0 0 7 2 9 7 20 20 12 16 11 18 9 16 8 15 8 17h2l9-8 14-9 14-7 15-5 12-2h13l-2 11-4 18 6-1h23l17 1 22 4 20 6 21 8 19 9-14-9-23-11-27-9-24-5 2-4 14-12 16-15 13-12 35-35 8-7 12-10 6-3h7l6 5 5 12 8 27 4 21 2 16 2 37v43l-1 3-5-2-7-6-4 1-4 3 2 4 11 9 15 14 9 10 9 11 13 18 8 15 1 5h-22l-16 4-7 4 3 10 4 14 1 5v12l-3 13 1 6 8 7 17 9 26 12 16 10 7 7 8 16 4 16 3 25v23l-3 26-5 22-6 16-8 14-10 11-5 2-5-15-1-7-2 1-5 14-11 19-14 19-12 13-12 11-14 9-4 1v-26l1-3-8 7-13 11-24 16-19 10 2 11 19 85 9 45 4 27v7l-5-1-10-7-10-8-3-2 1 4v33l-2 20-4 23-6 23-7 19-3 6h-4l-7-7-9-13-2 3-10 27v5l11 9 19 11 33 15 22 11 15 10 9 8 8 11 7 15 4 15 2 13v34l-4 24-6 20-6 15-9 17-6 11-9 13-9 10-9 9-11 7-10 4-9 2h-15l-16-4-16-8-7-7-5-9-2-12 2-16 5-14 9-17 7-10 8-13 5-13 2-14-1-10-5-6-8-3-5-1-77-2-13-1-13-3-6-3-2-5 14-21 10-17 4-9-9 12-11 13-7 8-15 15-13 10-14 8-10 4h-5l1-16v-12l-1-5h-2l-8 31-4 25v34l4 35 6 33 8 34 5 12 3 3 6 2 18 2 19 5 9 6 10 10 8 14 5 14 2 10-1 10-6 5-4 1-28 2h-62l-39-2-15-2-9-4-6-4-6-5-9-11-10-15-9-16-11-22-18-43-13-33-13-32-5 2-16 7h-6l2-55 2-24-18 10-13 5h-3v-8l4-24 6-23 6-19-14-1-26-4-27-7-20-8-4-2-4 19-5 16-9 19-10 15-11 14-9 11-10 11-7 8-8 8-7 10-2 4v13l8 18 8 17 14 24 9 12 6 7 6 4 7 2 17 1 16 5 14 9 11 11 8 14 4 11 2 15-3 7-6 4-18 3-31 2h-18l-15-1-30-1-20-2-11-4-11-8-11-13-13-19-8-12-11-16-16-23-17-26-13-21-10-18-7-15-2-6v-7l4-9 10-18 7-19 4-19 1-12v-20l-1-16-2-4-23 23-15 11-8 4h-1l1-9 4-13-14 14-11 9-10 9-25 20-20 15-19 14-14 10-34 23-9 7-7 11-5 12-7 24-13 45v4l16 3 15 6 11 8 7 9 4 8 4 20v18l-4 8-6 3-6 1-31 2h-74l-17-2-12-4-10-6-6-9-4-13v-32l6-42 11-60 8-53 5-39 4-8 10-8 13-12 14-15 10-13 16-24 16-29 3-7-5 1h-20l-4-2 2-6 9-17 15-33 12-27 20-50 9-24-11 3h-11l5-17 12-26 9-17 10-17 10-14 8-11 11-13 8-10h2v-3l-15-10-10-8-11-11-11-15-9-16-7-15-6-18-1-8 10 3 13 5-9-26-5-21-2-14-1-13v-19l1-17 2-13 2-5 4 4 10 15 7 11h1l5-32 5-19 7-19 12-23 8-12 9-12 11-13 15-15 11-9 14-10 14-7 7-1 1 1v22l-7 46-4 40v29l3 27 3 15 6 20 6 15 11 21 10 14 9 11 4 4v2h2l4 5h11l29-3 29-1 15-1 79-1 27-3 23-5 24-8 25-11 26-14 18-12 10-8 9-8 9-12 9-17 4-13 2-13-13 3-10 1h-10l-2-1 1-8 6-20 11-28 14-29 9-17 4-7-22-2-15-4 1-6 9-13 13-17 12-16 10-14 8-15 4-13 5-36 6-27 10-30 12-26 13-24 17-28 9-15 7-9 8-7z" fill="#1a1a1a" id="path1" />
  
  <path d="m 1343.0625,406.89648 c -4.69,-0.0187 -9.7218,0.64424 -14.354,0.39502 -5.7227,0.50233 -7.1306,1.07747 -10.5386,2.74756 -3.1801,0.61724 -1.5127,2.61278 0.773,2.66018 5.0038,0.31173 10.3889,1.82839 15.1411,3.56443 3.6613,1.14373 6.6422,2.37359 10.0676,3.99565 3.0585,1.57469 6.7102,4.71438 7.5613,8.40865 0.6347,3.606 -2.0057,6.55872 -4.3457,8.92578 -1.1488,1.26876 -4.7799,4.47818 -1.6192,5.29687 4.8724,-0.15202 9.7963,-1.08865 14.1622,-3.32421 2.5607,-1.58512 5.1997,-3.04627 7.8086,-4.55664 3.399,-2.0992 6.7534,-5.65106 6.1777,-9.95899 -1.1166,-4.37559 -4.0837,-8.12417 -7.502,-10.98828 -2.7023,-2.50449 -5.4554,-3.68239 -8.6977,-5.22119 -4.4301,-1.80835 -9.9443,-1.92616 -14.6343,-1.94483 z" style="fill:#ffffff" id="path4" ns1:nodetypes="scccccccccccccs" />
  <path transform="translate(1556,486)" d="m0 0 14 1 6 2 1 8-1 1-21 3-19 1-2-5 1-4 4-3 5-2z" fill="#FFFFFF" id="path3" />
</g></svg>